<?xml version="1.0" encoding="utf-8"?>
<!-- Generator: Adobe Illustrator 21.0.2, SVG Export Plug-In . SVG Version: 6.00 Build 0)  -->
<svg version="1.1" xmlns="http://www.w3.org/2000/svg" xmlns:xlink="http://www.w3.org/1999/xlink" x="0px" y="0px"
	 viewBox="0 0 6.5 4.7" style="enable-background:new 0 0 6.5 4.7;" xml:space="preserve">
<style type="text/css">
	.st0{display:none;}
	.st1{fill:#4D07FF;}
	.st2{fill:#0C0A15;}
</style>
<g id="Layer_3" class="st0">
</g>
<g id="Layer_1">
	<title>okcupyfavicon</title>
	<path class="st1" d="M5.7,4.3"/>
	<path class="st1" d="M5.2,4.3L5.1,4.1L4.9,3.8L4.6,3.3L4.4,2.9L4.3,2.6l0,0H3.5l0,0c0,0.3,0,0.5,0,0.8s0,0.6,0,0.8c0,0.4,0,0,0,0
		H3.1l0,0c0-0.6,0-1.1,0-1.7l0,0H2.3l0,0L2,3.1L1.8,3.6L1.5,4.2L1.4,4.3H1l0,0l0.1-0.2l0.3-0.5l0.2-0.4l0.2-0.4l0.2-0.5l0,0l0,0l0,0
		L1.8,2L1.4,1.3L0.9,0.6l0,0h0.5l0,0l0.2,0.3l0.2,0.4L2,1.7l0.2,0.4v0.1h0.8l0,0V1.2c0-0.2,0-0.3,0-0.4c0-0.1,0-0.1,0-0.2s0,0,0,0
		h0.4l0,0c0,0.5,0,1,0,1.5c0,0.7,0,0,0,0h0.8l0.1-0.2l0.3-0.5L5,0.8l0.1-0.2h0.5l0,0L5.3,1.2L5,1.6L4.7,2.2L4.7,2.3l0,0l0.1,0.2
		L5,3.1l0.3,0.5l0.3,0.5l0.1,0.1"/>
	<path class="st1" d="M5.2,4.3L5.2,4.3"/>
	<path class="st1" d="M5.7,4.3H5.2"/>
	<path class="st2" d="M3.2,0.6L3.2,0.6z"/>
	<rect x="3.2" y="0.7" width="0.2" height="3.5"/>
	<line x1="5.6" y1="4.3" x2="5.3" y2="4.4"/>
	<polyline points="5.2,4.2 4.2,2.4 4.5,2.2 5.5,4.2 	"/>
	<line x1="5.2" y1="4.3" x2="5.2" y2="4.2"/>
	<line x1="5.3" y1="4.4" x2="5.2" y2="4.3"/>
	<polyline points="5.5,0.7 4.4,2.5 4.2,2.3 5.1,0.7 	"/>
	<line x1="5.6" y1="0.5" x2="5.5" y2="0.7"/>
	<line x1="5.1" y1="0.7" x2="5.4" y2="0.3"/>
	<rect x="3.1" y="0.7" width="0.2" height="3.5"/>
	<rect x="3.1" y="2.1" class="st1" width="0.1" height="2.1"/>
	<rect x="2.2" y="2.1" class="st1" width="0.9" height="0.1"/>
	<line x1="1.4" y1="4.2" x2="1.3" y2="4.4"/>
	<polyline points="1.1,4.2 2.1,2.2 2.4,2.3 1.4,4.2 	"/>
	<line x1="1.1" y1="4.2" x2="1.1" y2="4.2"/>
	<line x1="1.1" y1="0.3" x2="1.3" y2="0.7"/>
	<line x1="0.9" y1="0.5" x2="1.1" y2="0.3"/>
	<line x1="1" y1="0.7" x2="0.9" y2="0.5"/>
	<polyline points="1.4,0.7 2.3,2.3 2.1,2.5 1,0.7 	"/>
	<polygon points="3.5,4.3 3.1,4.3 3.1,4.3 3.5,4.3 	"/>
</g>
<g id="Layer_2">
	<rect x="2.1" y="2.2" width="2.4" height="0.3"/>
</g>
</svg>
